<svg t="1646121070975" class="icon" viewBox="0 0 1024 1024" version="1.1" xmlns="http://www.w3.org/2000/svg" p-id="2206" width="200" height="200"><path d="M942.933333 307.2c-8.533333-17.066667-25.6-34.133333-42.666666-42.666667l-349.866667-162.133333c-12.8-4.266667-21.333333-8.533333-34.133333-8.533333-12.8 0-25.6 4.266667-34.133334 8.533333L123.733333 264.533333c-42.666667 21.333333-59.733333 68.266667-42.666666 110.933334 8.533333 17.066667 25.6 34.133333 42.666666 42.666666l76.8 34.133334v234.666666c0 29.866667 17.066667 59.733333 42.666667 72.533334l221.866667 128c12.8 8.533333 25.6 12.8 42.666666 12.8s29.866667-4.266667 42.666667-12.8l221.866667-128c25.6-17.066667 42.666667-42.666667 42.666666-72.533334v-234.666666l76.8-34.133334c51.2-17.066667 68.266667-68.266667 51.2-110.933333z m-183.466666 384c0 8.533333-4.266667 12.8-8.533334 17.066667l-221.866666 128c-8.533333 4.266667-12.8 4.266667-21.333334 0l-221.866666-128c-8.533333-4.266667-8.533333-12.8-8.533334-17.066667v-204.8l209.066667 98.133333c21.333333 8.533333 46.933333 8.533333 72.533333 0l209.066667-98.133333v204.8z m123.733333-345.6c0 4.266667-4.266667 8.533333-12.8 12.8l-349.866667 162.133333c-4.266667 4.266667-12.8 4.266667-17.066666 0L153.6 362.666667c-12.8-8.533333-17.066667-17.066667-12.8-29.866667 0-4.266667 4.266667-8.533333 12.8-12.8l349.866667-162.133333h17.066666l349.866667 162.133333c12.8 4.266667 17.066667 17.066667 12.8 25.6z" p-id="2207" fill="#b7d28d"></path><path d="M853.333333 486.4v174.933333c0 17.066667 12.8 29.866667 34.133334 34.133334 29.866667 0 51.2-25.6 51.2-51.2v-196.266667c-4.266667 0-4.266667 4.266667-8.533334 4.266667l-76.8 34.133333z" p-id="2208" fill="#b7d28d"></path></svg>